<?xml version="1.0" standalone="no"?>
<!DOCTYPE svg PUBLIC "-//W3C//DTD SVG 20010904//EN"
 "http://www.w3.org/TR/2001/REC-SVG-20010904/DTD/svg10.dtd">
<svg version="1.0" xmlns="http://www.w3.org/2000/svg"
 width="500.000000pt" height="500.000000pt" viewBox="0 0 500.000000 500.000000"
 preserveAspectRatio="xMidYMid meet">

<g transform="translate(0.000000,500.000000) scale(0.100000,-0.100000)"
fill="#000000" stroke="none">
<path d="M2156 4705 c-4 -19 -11 -35 -16 -35 -6 0 -10 -7 -10 -15 0 -8 6 -15
14 -15 10 0 16 -22 21 -82 10 -111 17 -128 55 -128 34 0 42 24 11 33 -15 3
-19 18 -25 78 -4 41 -9 82 -12 92 -4 11 0 17 10 17 9 0 16 7 16 15 0 8 -6 15
-14 15 -8 0 -17 14 -21 30 -9 40 -21 38 -29 -5z"/>
<path d="M2450 4606 c0 -51 -3 -107 -6 -123 -5 -24 -2 -31 14 -35 18 -5 20 1
25 86 6 100 13 126 32 126 11 0 25 20 25 36 0 12 -41 1 -49 -13 -9 -17 -10
-17 -16 0 -16 40 -25 11 -25 -77z"/>
<path d="M2603 4689 c-32 -12 -40 -35 -48 -126 -7 -79 -7 -82 18 -107 14 -14
35 -26 47 -26 23 0 60 33 60 54 0 22 -30 28 -37 8 -17 -46 -53 -29 -53 25 l0
35 48 -4 47 -3 3 48 c5 75 -32 116 -85 96z m45 -72 c3 -34 1 -37 -22 -37 -23
0 -26 4 -26 33 0 38 7 49 30 45 9 -2 16 -16 18 -41z"/>
<path d="M2266 4583 c4 -60 11 -116 15 -125 13 -25 48 -32 68 -14 13 12 20 13
29 4 21 -21 24 -1 17 121 -7 111 -9 121 -27 121 -18 0 -19 -5 -12 -105 6 -93
5 -105 -10 -111 -28 -11 -34 6 -42 114 -6 91 -9 102 -26 102 -18 0 -18 -6 -12
-107z"/>
<path d="M2019 4649 c-17 -17 -23 -19 -30 -8 -19 32 -21 -8 -4 -111 21 -121
26 -136 48 -127 12 5 12 15 1 74 -17 85 -17 140 -2 149 18 12 34 -21 47 -98
17 -102 20 -108 42 -108 15 0 19 5 15 18 -3 9 -10 46 -16 82 -15 92 -29 129
-50 140 -25 13 -27 13 -51 -11z"/>
<path d="M2817 4653 c-19 -19 -5 -31 28 -26 l35 6 0 -43 c0 -30 -4 -41 -12
-37 -7 3 -21 8 -30 12 -40 16 -84 -87 -58 -135 9 -16 19 -21 43 -19 18 2 38
-1 45 -5 7 -4 15 -6 17 -4 5 5 35 179 35 205 0 12 -7 29 -16 37 -15 16 -75 22
-87 9z m41 -142 c6 -40 -7 -71 -29 -71 -20 0 -21 4 -15 42 4 22 9 45 12 50 10
15 29 3 32 -21z"/>
<path d="M3265 4591 c-16 -49 -16 -50 -36 -30 -23 23 -31 24 -58 2 -23 -20
-71 -150 -71 -194 0 -39 33 -56 65 -35 21 14 23 14 18 -4 -4 -13 0 -20 9 -20
20 0 130 312 114 322 -20 13 -24 9 -41 -41z m-42 -95 c-5 -78 -70 -179 -86
-133 -5 13 15 85 38 142 22 51 51 45 48 -9z"/>
<path d="M1832 4618 c-12 -6 -25 -22 -29 -36 -7 -29 11 -112 37 -169 17 -38
23 -43 53 -43 20 0 41 7 50 18 18 19 23 57 9 66 -9 5 -34 -8 -33 -18 6 -43
-29 -51 -47 -11 -19 42 -14 52 25 60 21 4 41 9 44 11 13 7 -21 99 -42 117 -24
19 -35 20 -67 5z m58 -59 c15 -34 4 -53 -26 -47 -14 2 -20 14 -22 41 -3 31 0
37 16 37 12 0 24 -11 32 -31z"/>
<path d="M2985 4618 c-2 -7 -16 -60 -31 -117 -22 -85 -24 -105 -13 -112 19
-11 23 -4 44 76 22 86 41 125 60 125 21 0 19 -39 -6 -133 -16 -58 -19 -81 -10
-90 17 -17 26 -1 50 89 32 123 26 164 -24 164 -12 0 -26 -5 -33 -12 -9 -9 -12
-8 -12 5 0 20 -19 23 -25 5z"/>
<path d="M1523 4602 c-9 -6 -7 -18 8 -51 23 -52 23 -55 3 -47 -8 3 -25 1 -36
-5 -17 -9 -20 -18 -16 -52 8 -65 64 -176 94 -183 29 -7 54 10 54 40 1 19 2 19
11 4 12 -21 29 -24 29 -6 0 17 -123 308 -130 308 -3 0 -10 -4 -17 -8z m59
-182 c36 -74 45 -118 23 -126 -9 -4 -21 1 -29 11 -21 29 -67 155 -60 166 13
22 40 1 66 -51z"/>
<path d="M1724 4576 c-3 -8 -1 -47 5 -87 7 -39 10 -73 8 -75 -2 -2 -21 28 -43
66 -25 45 -45 70 -56 70 -10 0 -18 -3 -18 -7 0 -4 27 -53 61 -110 43 -73 67
-103 80 -103 13 0 19 7 19 23 0 27 -18 180 -26 215 -5 25 -22 29 -30 8z"/>
<path d="M3432 4488 c-129 -175 -152 -212 -140 -220 21 -13 25 -10 48 27 21
34 22 34 50 20 27 -14 28 -17 18 -51 -7 -25 -6 -40 1 -47 19 -19 28 2 69 156
37 139 38 148 21 157 -26 14 -25 15 -67 -42z m13 -96 c-16 -58 -18 -60 -40
-50 l-24 11 36 53 c20 30 38 52 40 50 3 -2 -3 -31 -12 -64z"/>
<path d="M3537 4343 c-57 -98 -83 -151 -76 -158 6 -6 13 -5 19 5 8 13 10 13
10 -1 0 -9 9 -24 20 -34 16 -15 25 -16 45 -7 27 13 115 155 115 187 0 28 -18
45 -47 45 l-24 0 26 44 c21 36 23 45 11 55 -11 9 -29 -15 -99 -136z m93 -10
c-1 -28 -74 -148 -93 -151 -9 -2 -20 4 -23 12 -7 17 26 90 57 130 24 30 59 35
59 9z"/>
<path d="M1340 4420 c-11 -11 -20 -26 -20 -33 0 -27 14 -27 35 -1 24 31 38 27
60 -17 15 -27 14 -29 -4 -29 -11 0 -27 -10 -35 -22 -13 -19 -13 -25 0 -57 30
-72 83 -96 105 -47 8 17 17 22 31 18 17 -4 15 4 -17 69 -69 137 -107 167 -155
119z m115 -130 c20 -39 19 -60 -4 -60 -20 0 -57 63 -46 80 12 19 35 10 50 -20z"/>
<path d="M1132 4401 c-10 -6 6 -39 68 -137 96 -151 105 -163 121 -147 9 9 -11
48 -77 152 -49 77 -91 141 -94 141 -3 0 -11 -4 -18 -9z"/>
<path d="M1057 4314 c-3 -4 -2 -15 4 -26 6 -10 7 -28 4 -39 -5 -15 -2 -22 14
-26 12 -3 44 -39 72 -79 56 -80 80 -95 109 -69 24 21 17 37 -13 30 -18 -4 -30
7 -69 65 -50 73 -55 86 -36 92 6 2 8 10 4 16 -4 7 -16 10 -26 7 -13 -4 -22 1
-30 15 -11 20 -22 25 -33 14z"/>
<path d="M3722 4293 c-24 -9 -112 -145 -112 -173 0 -53 69 -80 104 -41 21 23
6 37 -23 21 -11 -5 -24 -10 -30 -10 -16 0 -13 42 5 68 15 22 16 22 42 4 15
-10 32 -22 38 -25 16 -10 64 67 64 102 0 44 -45 71 -88 54z m53 -43 c7 -11
-21 -70 -33 -70 -5 0 -16 6 -26 13 -18 13 -18 15 -1 40 17 27 48 36 60 17z"/>
<path d="M2001 4239 c5 -23 7 -49 5 -58 -5 -16 19 -59 28 -50 7 7 -26 149 -34
149 -5 0 -4 -19 1 -41z"/>
<path d="M1945 4228 c4 -23 14 -60 21 -83 l14 -40 -6 40 c-3 22 -8 51 -10 65
-5 24 -5 24 11 -3 9 -16 19 -27 22 -24 5 6 -44 87 -53 87 -3 0 -3 -19 1 -42z"/>
<path d="M3805 4116 c-68 -85 -83 -116 -55 -116 4 0 32 28 60 63 61 72 85 91
106 83 20 -8 7 -31 -64 -119 -41 -50 -52 -71 -44 -79 15 -15 38 6 103 93 29
39 49 77 49 92 0 29 -29 51 -54 41 -12 -4 -15 -2 -10 9 3 8 1 18 -5 21 -5 4
-44 -36 -86 -88z"/>
<path d="M970 4180 c-11 -11 -20 -31 -20 -44 0 -23 62 -113 102 -148 42 -37
108 -11 108 42 0 43 -109 170 -147 170 -13 0 -32 -9 -43 -20z m102 -72 c43
-53 61 -85 53 -98 -12 -20 -34 -9 -75 38 -50 55 -65 85 -56 107 8 22 34 7 78
-47z"/>
<path d="M4054 4106 c-11 -8 -29 -14 -40 -13 -13 2 -18 -3 -16 -16 2 -12 -17
-40 -51 -75 -79 -84 -92 -120 -50 -137 23 -8 42 13 23 25 -12 7 -11 13 10 37
77 88 104 112 115 103 9 -7 16 -5 25 5 9 10 9 15 1 15 -16 0 -14 25 4 40 32
26 14 40 -21 16z"/>
<path d="M884 4095 c-3 -8 3 -27 13 -42 11 -15 30 -46 43 -67 25 -42 26 -42
-62 17 -51 35 -78 41 -78 18 0 -5 47 -39 105 -77 113 -75 141 -107 112 -129
-22 -16 -22 -35 1 -35 24 0 42 19 42 44 0 24 -147 286 -161 286 -5 0 -12 -7
-15 -15z"/>
<path d="M736 3959 c-24 -28 -33 -46 -26 -53 6 -6 18 -2 35 14 14 13 27 22 29
19 2 -2 25 -49 50 -103 l46 -99 31 29 c37 35 52 61 43 75 -4 7 -17 0 -35 -17
-16 -15 -31 -26 -33 -23 -2 2 -20 42 -40 89 -52 119 -55 121 -100 69z"/>
<path d="M4085 3990 c-11 -5 -46 -33 -77 -64 -65 -63 -75 -99 -36 -136 25 -23
29 -24 63 -8 34 15 26 34 -14 30 -44 -5 -52 22 -18 56 l27 26 33 -32 34 -33
36 41 c49 54 49 93 0 119 -25 13 -22 12 -48 1z m52 -46 c2 -7 -7 -25 -21 -40
l-24 -29 -22 20 -22 20 27 23 c28 23 55 26 62 6z"/>
<path d="M582 3927 c-9 -11 -8 -18 8 -32 18 -17 20 -17 26 -1 4 10 0 24 -8 32
-13 13 -16 13 -26 1z"/>
<path d="M651 3866 c-9 -11 6 -29 81 -94 80 -69 95 -78 107 -66 8 7 13 15 10
17 -2 1 -38 32 -79 67 -117 100 -106 92 -119 76z"/>
<path d="M4141 3816 c-41 -35 -78 -72 -84 -81 -13 -24 7 -65 32 -65 12 0 21
-8 23 -21 3 -17 16 -10 96 56 85 70 102 92 86 108 -3 3 -42 -23 -85 -59 -77
-62 -102 -74 -113 -55 -11 17 5 36 80 95 41 33 73 65 71 70 -8 25 -36 12 -106
-48z"/>
<path d="M521 3846 c-10 -12 11 -33 120 -120 73 -57 137 -102 141 -100 20 13
2 36 -79 99 -49 38 -107 84 -129 102 -35 28 -43 31 -53 19z"/>
<path d="M4264 3689 c-72 -46 -104 -79 -104 -109 0 -28 27 -60 51 -60 10 -1 8
-5 -5 -15 -30 -23 -8 -18 25 6 40 28 39 53 -1 44 -44 -10 -53 20 -15 53 l29
25 31 -37 30 -37 35 26 c64 47 76 79 40 115 -28 28 -58 25 -116 -11z m91 -9
c10 -16 -3 -44 -27 -59 -19 -12 -23 -11 -35 5 -18 25 -17 31 15 48 33 18 39
19 47 6z"/>
<path d="M524 3702 c-23 -15 -34 -50 -25 -76 10 -24 107 -97 155 -116 37 -14
78 21 74 63 -3 30 -31 58 -44 44 -4 -4 -2 -18 5 -31 24 -44 -4 -59 -51 -28
l-28 18 25 37 c14 20 25 38 25 41 0 3 -20 17 -43 31 -44 25 -73 31 -93 17z
m67 -42 c23 -13 24 -20 6 -44 -13 -18 -15 -18 -40 -1 -52 34 -21 74 34 45z"/>
<path d="M384 3616 c-5 -13 8 -32 47 -72 29 -30 49 -54 44 -54 -6 0 -39 9 -74
20 -35 10 -68 17 -73 14 -25 -16 1 -32 85 -53 50 -12 117 -36 149 -52 46 -23
58 -26 67 -15 9 11 4 19 -26 36 -21 13 -77 61 -125 108 -72 71 -88 83 -94 68z"/>
<path d="M4342 3527 c-56 -34 -102 -64 -102 -67 0 -3 4 -11 9 -18 6 -11 21 -5
65 23 88 56 121 68 139 50 12 -12 17 -12 33 0 18 13 17 14 -13 27 -24 10 -30
17 -22 25 6 6 7 13 2 16 -5 3 -54 -22 -111 -56z"/>
<path d="M1409 3053 c-48 -66 -108 -164 -153 -250 -41 -78 -52 -85 -148 -102
-84 -15 -113 -33 -218 -141 -59 -60 -128 -118 -181 -152 -94 -60 -121 -90
-239 -254 l-78 -109 545 -3 c299 -1 788 -1 1086 0 l541 3 -125 140 c-110 124
-127 140 -152 137 -42 -5 -60 15 -53 58 5 31 0 40 -39 82 -25 25 -52 48 -62
50 -9 2 -24 16 -33 32 -23 43 -43 47 -28 6 16 -47 -11 -100 -51 -100 -22 0
-31 6 -41 29 -13 32 -6 84 13 99 7 6 23 12 36 14 21 3 18 7 -30 46 -90 72
-208 192 -286 289 -78 98 -117 133 -176 158 -64 27 -89 21 -128 -32z m744
-614 c51 -23 83 -136 57 -199 -17 -41 -43 -39 -96 10 -24 22 -53 40 -64 40
-11 0 -36 7 -55 14 -44 19 -47 51 -7 88 57 53 115 70 165 47z"/>
<path d="M4637 2633 c-12 -3 -16 -10 -12 -21 3 -9 11 -39 17 -67 13 -62 31
-97 22 -41 -5 27 -3 41 7 47 11 7 11 9 -2 9 -34 0 -39 57 -6 70 23 9 6 11 -26
3z"/>
<path d="M4688 2483 c7 -3 16 -2 19 1 4 3 -2 6 -13 5 -11 0 -14 -3 -6 -6z"/>
<path d="M1326 1892 c-4 -7 61 -456 89 -619 6 -32 8 -33 54 -33 l49 0 11 78
c6 42 29 188 50 325 20 136 35 249 33 252 -9 8 -81 5 -86 -3 -3 -5 -15 -83
-26 -173 -12 -90 -25 -172 -29 -183 -4 -11 -17 58 -31 170 l-25 189 -42 3
c-23 1 -44 -1 -47 -6z"/>
<path d="M3227 1894 c-4 -4 -7 -50 -7 -102 0 -92 -1 -94 -18 -79 -30 27 -78
22 -99 -10 -15 -23 -19 -55 -21 -193 -4 -187 5 -241 44 -267 23 -15 28 -15 60
0 19 9 34 12 34 7 0 -6 23 -10 50 -10 l50 0 -2 328 -3 327 -40 3 c-23 2 -44 0
-48 -4z m-12 -410 c0 -143 -2 -159 -17 -162 -17 -3 -18 9 -18 156 0 87 3 162
7 166 22 22 28 -10 28 -160z"/>
<path d="M1701 1704 c-30 -25 -58 -95 -46 -114 3 -6 23 -10 44 -10 36 0 39 2
45 35 5 26 12 35 26 35 17 0 20 -7 20 -50 0 -44 -3 -51 -29 -64 -58 -31 -90
-67 -106 -119 -30 -100 10 -198 73 -182 15 4 35 14 44 22 16 14 18 14 24 -1 6
-16 32 -20 69 -10 19 5 20 12 18 187 -1 100 -3 195 -3 210 0 18 -11 39 -29 58
-40 39 -105 41 -150 3z m77 -375 c-20 -13 -26 -11 -38 12 -14 26 -5 70 23 106
l22 28 3 -69 c2 -49 -1 -72 -10 -77z"/>
<path d="M1944 1717 c-2 -7 -3 -116 -2 -242 l3 -230 48 -3 47 -3 0 195 c0 180
1 196 19 205 10 6 21 7 25 4 3 -3 6 -96 6 -205 l0 -198 45 0 45 0 2 198 3 197
-30 10 c-26 9 -30 15 -29 48 1 31 -2 37 -19 37 -11 0 -29 -8 -40 -17 -18 -17
-19 -17 -28 0 -12 21 -87 24 -95 4z"/>
<path d="M2489 1698 c-20 -25 -33 -32 -61 -32 -32 0 -37 -3 -42 -29 -10 -48
-7 -279 4 -318 14 -51 52 -83 87 -74 42 10 53 24 53 63 0 33 -1 34 -14 17 -12
-17 -16 -17 -30 -6 -14 12 -16 36 -14 170 3 143 5 156 22 159 10 2 22 -2 27
-10 5 -7 9 -71 9 -143 0 -100 3 -126 12 -117 20 20 47 14 52 -10 3 -13 7 -32
10 -43 2 -11 4 63 3 163 l-2 184 -33 29 c-41 37 -51 36 -83 -3z"/>
<path d="M2711 1705 c-35 -30 -49 -94 -32 -147 6 -19 38 -64 71 -102 58 -65
69 -91 54 -130 -3 -9 -12 -16 -20 -16 -8 0 -14 -4 -14 -10 0 -5 -12 -10 -27
-10 -16 0 -35 -5 -43 -10 -13 -8 -12 -11 5 -24 69 -51 163 -18 185 66 17 60
-2 108 -71 185 -54 62 -60 72 -57 108 4 52 35 63 44 15 6 -29 9 -31 48 -28 39
3 41 4 37 33 -7 67 -37 94 -103 95 -35 0 -54 -6 -77 -25z"/>
<path d="M3423 1708 c-39 -44 -43 -63 -43 -223 0 -178 11 -218 64 -240 28 -12
33 -11 54 8 14 13 37 22 55 22 39 0 57 30 57 98 l0 47 -39 0 c-38 0 -38 0 -44
-46 -5 -47 -20 -66 -43 -57 -17 6 -27 56 -22 108 l3 40 73 3 72 3 0 85 c0 128
-32 174 -120 174 -35 0 -51 -5 -67 -22z m101 -80 c3 -13 6 -38 6 -55 0 -31 -2
-33 -35 -33 -33 0 -35 2 -35 36 0 19 5 44 10 55 15 26 46 24 54 -3z"/>
<path d="M370 1564 c-1 -57 -1 -58 -16 -34 -17 28 -16 23 6 -32 22 -59 30 -45
23 40 -7 94 -13 105 -13 26z"/>
<path d="M2239 1617 c-1 -4 -1 -18 -1 -32 0 -14 0 -97 1 -185 l1 -160 40 0 40
0 0 153 0 153 -40 39 c-22 21 -40 36 -41 32z"/>
<path d="M310 1603 c0 -19 11 -43 21 -43 13 0 11 14 -6 36 -8 10 -15 14 -15 7z"/>
<path d="M265 1585 c14 -48 51 -135 57 -135 5 0 7 19 7 43 -1 29 -3 34 -7 17
-4 -22 -8 -18 -34 35 -15 33 -26 51 -23 40z"/>
<path d="M2660 1350 c0 -30 21 -42 35 -20 4 6 14 9 23 8 11 -2 18 5 20 20 3
20 -1 22 -37 22 -39 0 -41 -2 -41 -30z"/>
<path d="M2880 385 c-17 -21 1 -62 34 -74 28 -11 40 -39 25 -57 -7 -9 -8 -14
-1 -14 35 0 12 72 -27 85 -24 7 -37 43 -22 58 7 7 15 6 27 -4 15 -12 17 -12
12 1 -7 21 -32 24 -48 5z"/>
<path d="M2896 255 c4 -8 11 -15 16 -15 6 0 5 6 -2 15 -7 8 -14 15 -16 15 -2
0 -1 -7 2 -15z"/>
</g>
</svg>
